 http://img824.imageshack.us/img824/9618/johnnyenglishj.jpg


Verenigde Staten / Frankrijk / Verenigd Koninkrijk
Komedie
101 minuten

geregisseerd door Oliver Parker
met Rowan Atkinson, Rosamund Pike en Dominic West

Er wordt opnieuw een beroep gedaan op Johnny English, de onwaarschijnlijke geheim agent in de Britse geheime dienst. Na zijn laatste perikelen heeft MI-7's Johnny English zijn vaardigheden bijgespijkerd in een afgelegen Aziatisch gebied. Maar wanneer zijn leidinggevenden lucht krijgen van een moordpoging op de Chinese president, wat een wereldchaos zal veroorzaken, gaan zij onmiddellijk op zoek naar hun onorthodoxe agent. Johnny moet wederom high-tech gadgets besturen om een web van list en bedrog te ontrafelen waarbij MI-7, de CIA en de KGB betrokken zijn.



Nl subs






Screenshots:




INFO;


Format                                   : Matroska
Format version                           : Version 2
File size                                : 1.90 GiB
Duration                                 : 1h 41mn
Overall bit rate                         : 2 683 Kbps
Encoded date                             : UTC 2012-01-10 22:04:03
Writing application                      : mkvmerge v5.2.1 ('A Far Off Place') built on Jan  2 2012 23:21:10
Writing library                          : libebml v1.2.3 + libmatroska v1.3.0

Video
ID                                       : 1
Format                                   : AVC
Format/Info                              : Advanced Video Codec
Format profile                           : High@L4.1
Format settings, CABAC                   : Yes
Format settings, ReFrames                : 6 frames
Muxing mode                              : Header stripping
Codec ID                                 : V_MPEG4/ISO/AVC
Duration                                 : 1h 41mn
Bit rate                                 : 2 299 Kbps
Width                                    : 1 280 pixels
Height                                   : 528 pixels
Display aspect ratio                     : 2.40:1
Frame rate                               : 23.976 fps
Color space                              : YUV
Chroma subsampling                       : 4:2:0
Bit depth                                : 8 bits
Scan type                                : Progressive
Bits/(Pixel*Frame)                       : 0.142
Stream size                              : 1.59 GiB (84%)
Writing library                          : x264 core 116 r2074
Default                                  : Yes
Forced                                   : No

Audio
ID                                       : 2
Format                                   : AC-3
Format/Info                              : Audio Coding 3
Mode extension                           : CM (complete main)
Muxing mode                              : Header stripping
Codec ID                                 : A_AC3
Duration                                 : 1h 41mn
Bit rate mode                            : Constant
Bit rate                                 : 384 Kbps
Channel(s)                               : 6 channels
Channel positions                        : Front: L C R, Side: L R, LFE
Sampling rate                            : 48.0 KHz
Bit depth                                : 16 bits
Compression mode                         : Lossy
Stream size                              : 278 MiB (14%)
Default                                  : Yes
Forced                                   : No

Text
ID                                       : 3
Format                                   : UTF-8
Codec ID                                 : S_TEXT/UTF8
Codec ID/Info                            : UTF-8 Plain Text
Language                                 : Dutch
Default                                  : Yes
Forced                                   : No


 
http://www.imdb.com/title/tt1634122/ 
http://www.moviemeter.nl/film/72610





Deze film wordt u aangeboden door het DutchReleaseTeam.
Voor de reviews van de nieuwste films, muziek, series, games etc
ga dan eens naar http://www.hetmultimediacafe.be/